<?xml version="1.0" standalone="no"?>
<!DOCTYPE svg PUBLIC "-//W3C//DTD SVG 20010904//EN"
 "http://www.w3.org/TR/2001/REC-SVG-20010904/DTD/svg10.dtd">
<svg version="1.0" xmlns="http://www.w3.org/2000/svg"
 width="3465.000000pt" height="3465.000000pt" viewBox="0 0 3465.000000 3465.000000"
 preserveAspectRatio="xMidYMid meet">
<metadata>
Created by potrace 1.16, written by Peter Selinger 2001-2019
</metadata>
<g transform="translate(0.000000,3465.000000) scale(0.100000,-0.100000)"
fill="#000000" stroke="none">
<path d="M25030 24180 c-89 -10 -120 -21 -143 -52 -17 -23 -19 -34 -11 -80 8
-48 12 -55 49 -73 39 -20 66 -20 1085 -26 706 -3 1057 -9 1083 -16 21 -6 86
-30 145 -54 104 -41 110 -45 207 -143 89 -89 105 -110 133 -179 18 -43 37
-110 41 -150 5 -40 10 -857 10 -1816 l1 -1745 25 -43 c29 -48 43 -58 99 -66
48 -8 81 13 123 76 l28 43 0 1780 -1 1779 -48 140 c-59 172 -100 238 -229 367
-190 190 -300 238 -582 252 -174 9 -1943 14 -2015 6z"/>
<path d="M15130 23540 c-73 -7 -234 -44 -316 -73 -56 -20 -188 -110 -252 -171
-84 -80 -150 -191 -191 -321 -13 -38 -30 -83 -39 -100 -16 -28 -17 -319 -20
-4115 -2 -2907 0 -4107 8 -4162 17 -121 74 -306 114 -373 141 -233 361 -380
636 -426 58 -10 518 -13 2010 -13 1916 -1 1935 -1 1969 -21 19 -11 42 -31 52
-45 18 -24 17 -28 -5 -120 -13 -52 -31 -114 -39 -136 -8 -23 -32 -114 -52
-204 -20 -89 -48 -199 -61 -243 -13 -44 -31 -121 -40 -171 -8 -50 -31 -138
-49 -196 -19 -58 -41 -148 -51 -200 -9 -52 -31 -138 -49 -190 -18 -54 -38
-139 -45 -197 -19 -158 -70 -247 -161 -281 -15 -6 -335 -13 -795 -16 -423 -4
-788 -9 -812 -13 -64 -8 -134 -59 -144 -103 -4 -19 -7 -153 -6 -297 l2 -262
46 -46 c31 -30 61 -50 86 -56 60 -14 7665 -14 7692 0 11 6 38 32 58 57 l38 45
0 290 0 289 -29 31 c-62 65 -42 63 -670 66 -1120 4 -1047 2 -1091 26 -56 31
-83 93 -101 225 -9 75 -22 125 -42 169 -30 64 -45 125 -56 228 -4 38 -19 86
-42 133 -27 56 -38 97 -50 180 -10 77 -23 125 -45 172 -22 46 -38 103 -53 197
-14 83 -30 144 -43 167 -26 44 -48 121 -57 196 -10 82 -23 130 -51 183 -28 52
-27 79 3 116 l18 22 1990 4 c1433 3 2011 7 2064 15 97 16 268 81 341 130 31
21 98 79 148 129 97 96 143 173 192 321 52 154 49 -83 50 4335 l0 4120 -35
103 c-46 134 -85 211 -150 291 -60 75 -104 119 -155 153 -19 12 -51 35 -70 50
-24 18 -79 38 -175 63 -115 30 -168 38 -295 45 -185 11 -11071 10 -11180 0z
m11329 -298 c65 -14 162 -63 216 -109 77 -67 105 -96 105 -109 0 -7 13 -28 28
-46 16 -18 36 -54 45 -79 16 -43 18 -305 20 -4175 3 -3300 1 -4142 -9 -4192
-17 -81 -112 -251 -158 -283 -18 -12 -41 -34 -51 -49 -21 -31 -117 -64 -232
-80 -46 -6 -940 -9 -2510 -9 -1341 1 -2541 -1 -2668 -3 -229 -3 -341 -3 -1280
1 -269 1 -1426 2 -2570 2 -1144 -1 -2143 3 -2220 8 -168 10 -258 37 -318 94
-21 21 -45 37 -52 37 -8 0 -30 24 -48 53 -19 28 -41 58 -50 66 -9 7 -29 50
-44 95 l-27 81 2 4144 c2 3697 4 4149 18 4195 8 28 20 61 27 72 31 55 68 103
97 125 17 13 48 39 69 57 55 46 177 100 252 110 99 15 11289 9 11358 -6z
m-4419 -9515 c16 -16 30 -38 30 -48 0 -10 11 -53 25 -95 14 -43 35 -125 46
-183 11 -58 31 -130 45 -159 13 -30 31 -91 39 -135 9 -45 21 -104 26 -132 5
-27 20 -70 33 -95 13 -25 26 -63 30 -85 15 -95 40 -197 72 -300 19 -60 41
-145 49 -189 8 -43 25 -97 38 -120 25 -42 41 -101 52 -191 4 -27 17 -69 30
-93 l24 -43 -42 -30 c-36 -26 -48 -30 -84 -24 -23 3 -779 5 -1680 5 -901 -1
-1662 -1 -1692 0 -57 1 -111 28 -111 55 0 15 16 69 70 240 16 50 39 140 50
200 12 61 30 135 41 165 10 30 28 100 39 156 11 56 52 227 91 380 94 374 114
460 141 587 20 98 25 110 52 130 l31 22 1200 5 c660 3 1228 6 1262 6 56 1 65
-2 93 -29z m2337 -2252 c57 -24 76 -75 58 -156 -5 -20 -16 -34 -32 -40 -36
-13 -7193 -12 -7243 1 -44 12 -53 22 -69 72 -16 48 -4 70 57 109 l46 29 3024
0 c1664 0 3026 1 3028 2 1 2 249 1 551 0 425 -3 555 -7 580 -17z"/>
<path d="M15305 22870 c-149 -5 -164 -7 -215 -32 -34 -17 -64 -41 -80 -64
l-25 -38 -3 -3309 c-3 -3044 -2 -3313 13 -3365 24 -80 47 -107 111 -131 l55
-21 5257 2 c2891 1 5415 2 5607 2 l350 1 50 26 c64 33 83 67 95 170 6 52 10
1308 10 3252 0 1743 2 3172 4 3176 3 4 1 56 -3 115 -10 123 -17 135 -111 189
l-55 32 -5450 0 c-2997 0 -5522 -2 -5610 -5z m10856 -301 c11 -6 29 -31 40
-56 19 -44 19 -101 19 -3091 -1 -1676 -5 -3067 -9 -3092 -6 -28 -19 -53 -36
-67 l-26 -23 -5389 2 -5389 3 -28 21 c-15 12 -33 39 -40 60 -9 30 -12 767 -12
3093 0 2971 0 3054 19 3090 25 50 41 61 96 69 84 12 10732 4 10755 -9z"/>
<path d="M16606 21950 c-111 -11 -150 -44 -158 -134 -3 -34 1 -42 34 -69 38
-30 38 -30 205 -38 93 -5 762 -8 1488 -6 l1320 2 48 24 c63 31 78 54 68 109
-9 47 -31 76 -76 101 -27 15 -151 16 -1440 17 -775 1 -1445 -2 -1489 -6z"/>
<path d="M16550 21341 c-59 -12 -79 -28 -94 -79 -12 -40 -12 -52 0 -82 26 -64
48 -84 105 -97 42 -10 680 -12 2944 -10 l2890 2 50 25 c37 18 55 35 69 64 18
36 18 44 5 95 -13 52 -17 57 -54 71 -35 13 -391 15 -2960 16 -1606 1 -2936 -1
-2955 -5z"/>
<path d="M16805 20741 c-183 -4 -267 -10 -282 -19 -40 -23 -73 -82 -73 -132 0
-55 17 -81 67 -106 37 -18 123 -19 2961 -22 l2922 -2 51 25 c54 28 69 52 69
115 0 56 -15 82 -68 115 l-47 30 -2670 1 c-1468 0 -2787 -2 -2930 -5z"/>
<path d="M16810 18350 c-140 -3 -265 -10 -276 -14 -24 -8 -59 -52 -74 -90 -11
-30 12 -106 38 -129 43 -37 66 -37 2034 -37 2072 0 2008 -1 2050 51 10 11 23
38 29 60 11 35 10 42 -14 78 -20 29 -41 45 -84 63 l-58 23 -1695 1 c-932 0
-1810 -3 -1950 -6z"/>
<path d="M16563 17716 c-23 -6 -56 -24 -72 -40 -42 -40 -44 -109 -5 -155 54
-65 -260 -60 4029 -63 3803 -3 3902 -3 3930 16 70 44 85 66 85 122 0 57 -14
79 -75 112 -28 16 -312 17 -3940 18 -2915 2 -3921 -1 -3952 -10z"/>
<path d="M16575 17113 c-53 -13 -84 -36 -99 -74 -20 -49 -20 -77 -2 -120 19
-46 42 -64 98 -78 35 -8 1058 -11 3941 -11 l3894 0 44 23 c31 17 50 37 67 70
24 45 24 47 7 96 -14 42 -25 56 -59 76 l-43 25 -3914 -1 c-2153 -1 -3923 -3
-3934 -6z"/>
<path d="M20660 15111 c-43 -9 -91 -34 -164 -84 -67 -47 -84 -69 -133 -178
-35 -79 -38 -90 -38 -184 0 -96 2 -103 40 -183 47 -100 93 -145 204 -198 121
-59 250 -57 388 6 87 39 193 145 217 215 22 64 32 227 17 281 -29 105 -158
247 -281 305 -48 24 -184 35 -250 20z m141 -346 c34 -18 69 -69 69 -102 0 -25
-41 -67 -82 -84 -36 -15 -67 0 -104 48 -24 32 -25 34 -9 68 20 41 62 85 82 85
8 0 27 -7 44 -15z"/>
<path d="M8463 21381 c-66 -11 -136 -60 -151 -105 -10 -30 -12 -1053 -12
-5051 0 -2756 2 -5019 5 -5028 4 -8 30 -26 58 -39 l52 -23 2415 -3 2416 -2 41
26 41 27 6 141 c4 78 5 2346 4 5041 -3 4493 -4 4903 -19 4935 -9 19 -29 46
-44 60 l-27 25 -2371 2 c-1305 1 -2391 -2 -2414 -6z m629 -296 c564 -5 3587
-5 3733 1 l140 6 42 -31 c40 -31 42 -33 48 -104 3 -39 3 -508 0 -1042 -3 -533
-6 -1008 -5 -1055 0 -47 1 -1029 3 -2184 l2 -2098 -45 -40 -44 -40 -66 7 c-36
4 -321 7 -635 7 -637 0 -616 0 -1065 -2 -427 -3 -404 -3 -1450 -1 -498 0 -933
-3 -967 -7 -55 -7 -68 -6 -113 17 -35 17 -53 32 -58 50 -3 14 -7 563 -7 1220
l0 1193 46 42 46 41 1794 0 1794 0 40 23 c52 30 82 75 88 135 4 42 0 54 -34
107 -69 106 158 95 -1896 97 -2017 2 -1850 -4 -1872 75 -15 59 -11 3494 5
3521 20 34 97 78 126 71 15 -3 173 -7 350 -9z m3919 -6921 c60 -22 79 -54 79
-132 0 -72 -27 -119 -80 -138 -47 -17 -4261 -20 -4339 -3 -39 8 -58 19 -81 47
-26 32 -30 44 -30 99 0 54 4 67 28 94 15 17 43 34 62 39 19 4 998 8 2175 9
1969 1 2144 0 2186 -15z m20 -564 c60 -27 59 -22 58 -688 -1 -334 -4 -620 -8
-637 -5 -25 -14 -33 -55 -46 -45 -15 -241 -16 -2220 -15 -1787 1 -2175 3
-2194 14 -54 31 -54 36 -53 689 1 639 0 635 47 674 15 12 324 15 2158 20 1178
3 2164 4 2191 3 28 -1 62 -7 76 -14z m-24 -1702 c58 -14 66 -26 54 -80 -6 -25
-11 -83 -11 -129 -1 -46 -1 -91 -1 -99 -1 -8 3 -36 9 -62 5 -25 6 -51 3 -56
-3 -5 -24 -19 -47 -31 l-41 -21 -2142 0 c-2268 0 -2173 -2 -2208 42 -6 7 -13
78 -17 158 -3 80 -9 170 -12 200 -5 50 -4 56 18 70 20 13 275 16 2088 20 2191
5 2242 5 2307 -12z"/>
<path d="M8955 20380 c-74 -7 -141 -69 -167 -153 -6 -20 -10 -306 -10 -739 0
-700 1 -707 22 -755 28 -63 65 -101 112 -113 24 -7 678 -11 1903 -11 1840 0
1866 0 1893 20 45 33 89 84 101 120 8 24 11 245 11 758 0 623 -2 728 -15 753
-18 34 -120 120 -143 120 -165 4 -3672 4 -3707 0z m3549 -350 c20 -34 21 -48
21 -540 0 -461 -2 -508 -17 -537 -10 -17 -22 -34 -27 -37 -5 -3 -748 -6 -1652
-7 l-1644 -1 -45 40 -45 40 -3 465 c-2 310 1 480 8 506 6 22 26 56 44 76 l33
35 1654 -2 1653 -3 20 -35z"/>
<path d="M10670 15951 c-36 -10 -103 -34 -149 -54 -69 -30 -93 -47 -140 -98
-66 -73 -95 -115 -106 -149 -4 -14 -17 -41 -30 -60 -28 -42 -43 -112 -52 -230
-7 -109 10 -205 47 -262 15 -24 35 -67 45 -96 22 -70 123 -183 207 -234 219
-132 585 -88 756 90 28 30 52 58 52 62 0 5 16 27 35 50 21 26 42 68 56 112 11
39 30 89 42 112 18 34 22 57 21 136 0 82 -4 103 -27 152 -15 31 -27 64 -27 72
0 64 -90 187 -175 241 -16 10 -37 28 -46 40 -23 29 -203 113 -268 125 -79 15
-167 11 -241 -9z m220 -365 c122 -34 173 -83 211 -204 14 -42 15 -61 6 -95
-32 -126 -205 -268 -310 -252 -92 13 -149 38 -179 79 -15 21 -28 44 -28 49 0
6 -12 25 -26 44 -21 28 -26 45 -27 107 -1 67 2 80 37 147 21 41 46 82 55 92
18 19 123 45 181 46 19 0 55 -6 80 -13z"/>
<path d="M8150 10550 c-74 -4 -149 -12 -165 -18 -17 -7 -42 -31 -58 -57 l-29
-45 18 -45 c20 -53 59 -90 112 -105 26 -8 1998 -10 6677 -8 l6640 3 45 25 c40
22 46 31 56 76 9 42 8 58 -5 95 -20 53 -46 68 -140 80 -75 9 -12943 9 -13151
-1z"/>
<path d="M18655 10090 c-2051 -4 -2851 -9 -2878 -17 -53 -16 -64 -27 -77 -84
-10 -39 -9 -53 1 -65 18 -22 60 -42 112 -54 61 -13 9206 -14 9262 -1 24 6 49
22 63 38 19 24 22 35 16 78 -4 33 -14 58 -30 75 l-24 25 -458 2 c-1156 7
-3382 8 -5987 3z"/>
<path d="M7488 10080 c-71 -12 -104 -40 -112 -95 -4 -25 -4 -49 -1 -55 3 -5
27 -22 53 -37 l47 -28 435 -5 c239 -3 1235 -4 2212 -2 l1776 3 31 31 c25 26
31 40 30 72 -2 65 -12 88 -49 107 -34 18 -108 19 -2205 18 -1193 -1 -2191 -5
-2217 -9z"/>
<path d="M25918 10072 c-60 -22 -64 -27 -71 -87 -8 -60 3 -77 64 -104 42 -19
74 -20 619 -23 l575 -3 47 28 c62 36 70 52 55 113 -11 43 -17 52 -57 72 l-44
22 -571 -1 c-506 0 -575 -2 -617 -17z"/>
</g>
</svg>
